<?xml version="1.0" encoding="UTF-8"?>
<!DOCTYPE svg PUBLIC "-//W3C//DTD SVG 1.1//EN" "http://www.w3.org/Graphics/SVG/1.1/DTD/svg11.dtd">
<!-- Creator: CorelDRAW -->
<svg xmlns="http://www.w3.org/2000/svg" xml:space="preserve" width="45.38mm" height="61.9537mm" version="1.1" style="shape-rendering:geometricPrecision; text-rendering:geometricPrecision; image-rendering:optimizeQuality; fill-rule:evenodd; clip-rule:evenodd"
viewBox="0 0 4526.79 6180.06"
 xmlns:xlink="http://www.w3.org/1999/xlink"
 xmlns:xodm="http://www.corel.com/coreldraw/odm/2003">
 <defs>
  <style type="text/css">
   <![CDATA[
    .fil0 {fill:#434242}
   ]]>
  </style>
 </defs>
 <g id="Слой_x0020_1">
  <metadata id="CorelCorpID_0Corel-Layer"/>
  <path class="fil0" d="M1389.9 6178.25l0.01 -5954.91c0,-0.46 0,-0.92 0,-1.37 0,-29.35 -5.91,-58.53 -17.1,-85.18 -11.55,-26.15 -27.85,-50.59 -47.76,-71.67 -21.35,-19.86 -45.95,-36.11 -72.62,-47.9 -27.69,-11.33 -57.44,-17.21 -87.36,-17.21 -0.45,0 -0.89,0 -1.04,0l-938 -0.01c-0.84,0 -1.68,0 -2.5,0 -29.73,0 -59.24,5.83 -86.74,17.12 -26.34,11.91 -50.69,28.13 -71.81,47.88 -19.77,21.15 -36,45.53 -47.91,71.92 -11.23,26.9 -17.07,55.89 -17.07,85.05 0,0.45 0,0.9 0,1.35l0 5954.93 604.96 0 -0.01 -2433.15 178.63 -47.87c0,805.9 0,1675.12 0,2481.02l606.32 0zm-606.33 -3079.87l-178.62 51.8 0 -2704 178.62 0 0 2652.2z"/>
  <path class="fil0" d="M1568.52 2776.37l604.96 -147.32 0 -2182.88 179.06 0 0 2311.46 -784.02 197.35 0 3225.06 1388.53 0.01 0 -2828.04 -604.51 178.53 0 2201.53 -179.06 0 0 -2328.66 783.57 -225.25 -0.01 -2962.98c0,-118.72 -96.44,-215.18 -215.16,-215.18l-958.65 0c-118.62,0 -214.72,96.67 -214.72,215.17l0 2561.2z"/>
  <path class="fil0" d="M3138.26 2776.37l604.96 -147.32 0 -2182.88 179.06 0 0 2311.46 -784.02 197.35 0 3225.06 1388.53 0.01 0 -2828.04 -604.51 178.53 0 2201.53 -179.06 0 0 -2328.66 783.57 -225.25 -0.01 -2962.98c0,-118.72 -96.44,-215.18 -215.16,-215.18l-958.65 0c-118.62,0 -214.72,96.67 -214.72,215.17l0 2561.2z"/>
 </g>
</svg>
